<?xml version="1.0" standalone="no"?>
<!DOCTYPE svg PUBLIC "-//W3C//DTD SVG 20010904//EN"
 "http://www.w3.org/TR/2001/REC-SVG-20010904/DTD/svg10.dtd">
<svg version="1.0" xmlns="http://www.w3.org/2000/svg"
 width="267.000000pt" height="267.000000pt" viewBox="0 0 267.000000 267.000000"
 preserveAspectRatio="xMidYMid meet">
<metadata>
Created by potrace 1.14, written by Peter Selinger 2001-2017
</metadata>
<g transform="translate(0.000000,267.000000) scale(0.100000,-0.100000)"
fill="#000000" stroke="none">
<path d="M394 1639 c-58 -7 -121 -26 -129 -39 -3 -5 9 -5 27 1 52 14 179 11
231 -7 62 -21 113 -71 128 -126 16 -61 6 -157 -22 -207 -25 -45 -46 -51 -72
-21 -9 11 -24 20 -32 20 -22 0 -18 11 21 55 37 42 89 133 80 142 -2 3 -12 -9
-20 -25 -30 -57 -123 -157 -185 -196 -58 -38 -73 -58 -51 -71 12 -7 45 9 83
41 37 31 52 30 93 -5 29 -26 37 -29 65 -21 101 29 159 160 120 274 -53 154
-150 208 -337 185z"/>
<path d="M1110 1638 c-175 -44 -312 -125 -279 -164 14 -17 32 -18 26 -1 -20
55 115 107 283 108 109 1 212 -16 242 -41 32 -26 18 -64 -34 -88 -44 -21 -148
-44 -148 -33 0 3 18 29 40 56 41 51 47 65 31 65 -10 0 -42 -31 -99 -94 -23
-25 -41 -36 -61 -36 -43 0 -91 -11 -91 -21 0 -5 18 -9 40 -9 45 0 49 -7 20
-37 -30 -33 -90 -130 -90 -147 0 -10 9 -15 28 -15 15 1 131 0 258 -1 218 -2
234 -1 273 20 29 14 42 17 40 8 -3 -29 2 -40 16 -34 21 8 20 4 -25 -66 -26
-42 -36 -66 -29 -73 15 -15 39 5 89 75 30 42 55 66 73 71 30 8 31 9 -20 -63
-34 -49 -42 -78 -21 -78 6 0 20 8 31 17 17 16 58 18 490 18 413 0 472 2 472
15 0 13 -59 15 -458 18 -252 1 -457 6 -455 10 15 34 57 81 81 90 24 9 27 14
18 30 -8 15 -7 23 6 33 10 8 14 9 10 2 -4 -6 -2 -15 4 -19 6 -4 16 1 21 10 5
9 17 16 26 16 12 0 8 -7 -14 -25 -80 -63 -22 -111 70 -57 29 17 32 17 48 0 19
-19 47 -14 106 16 39 20 39 20 38 -6 -1 -20 4 -23 39 -23 117 1 208 26 191 53
-10 17 -38 15 -96 -8 -28 -11 -62 -20 -75 -20 -22 0 -25 4 -25 35 0 42 -4 42
-51 11 -20 -14 -49 -28 -65 -32 l-28 -7 17 26 c22 34 22 37 -8 37 -14 0 -28
-7 -32 -15 -7 -19 -100 -68 -113 -60 -16 10 -12 22 20 58 41 47 39 57 -15 53
-44 -3 -45 -2 -29 16 10 10 14 21 10 25 -4 4 -37 -25 -74 -65 -42 -44 -78 -74
-96 -78 l-30 -7 48 68 c26 37 44 70 41 74 -4 3 -40 -29 -80 -73 -72 -76 -103
-91 -91 -41 9 35 -7 38 -48 10 -20 -14 -48 -28 -63 -31 -28 -7 -27 -9 -6 44 3
8 -4 12 -20 12 -18 0 -28 -8 -37 -30 -7 -16 -15 -30 -19 -31 -3 0 -14 -2 -23
-4 -28 -5 -29 10 -3 35 35 33 34 82 -2 109 -14 12 -51 29 -82 38 l-56 16 55
12 c104 21 170 69 170 122 0 34 -51 80 -109 97 -51 15 -215 18 -271 4z m188
-300 c65 -24 80 -47 49 -76 -38 -35 -123 -56 -257 -64 -26 -2 -44 2 -42 7 1 6
26 45 54 88 l51 78 46 -7 c25 -4 70 -15 99 -26z"/>
<path d="M780 1291 c-37 -20 -72 -55 -83 -84 -9 -24 16 -32 53 -17 25 10 32
10 46 -5 22 -22 32 -9 35 43 2 24 9 48 16 54 38 31 -12 38 -67 9z m20 -40 c0
-15 -42 -41 -53 -34 -6 4 0 14 12 25 25 20 41 23 41 9z"/>
<path d="M5 1099 c-4 -6 -4 -13 0 -17 11 -12 1518 -10 1533 1 11 8 11 12 0 18
-20 13 -1525 11 -1533 -2z"/>
</g>
</svg>
