<?xml version="1.0" encoding="utf-8"?><svg xmlns="http://www.w3.org/2000/svg" xmlns:xlink="http://www.w3.org/1999/xlink"><symbol viewBox="0 0 512 512" id="arrow" xmlns="http://www.w3.org/2000/svg"><path d="M506.134 241.843l-.018-.019-104.504-104c-7.829-7.791-20.492-7.762-28.285.068-7.792 7.829-7.762 20.492.067 28.284L443.558 236H20c-11.046 0-20 8.954-20 20s8.954 20 20 20h423.557l-70.162 69.824c-7.829 7.792-7.859 20.455-.067 28.284 7.793 7.831 20.457 7.858 28.285.068l104.504-104 .018-.019c7.833-7.818 7.808-20.522-.001-28.314z"/></symbol><symbol viewBox="0 0 405.272 405.272" id="check" xmlns="http://www.w3.org/2000/svg"><path d="M393.401 124.425L179.603 338.208c-15.832 15.835-41.514 15.835-57.361 0L11.878 227.836c-15.838-15.835-15.838-41.52 0-57.358 15.841-15.841 41.521-15.841 57.355-.006l81.698 81.699L336.037 67.064c15.841-15.841 41.523-15.829 57.358 0 15.835 15.838 15.835 41.514.006 57.361z"/></symbol><symbol viewBox="0 0 16 16" id="close" xmlns="http://www.w3.org/2000/svg"><path d="M1.253.215a.734.734 0 011.038 0l13.494 13.494a.734.734 0 010 1.038l-1.038 1.038a.734.734 0 01-1.038 0L.215 2.291a.734.734 0 010-1.038L1.253.215z"/><path d="M.215 14.747a.734.734 0 010-1.038L13.709.215a.734.734 0 011.038 0l1.038 1.038a.734.734 0 010 1.038L2.291 15.785a.734.734 0 01-1.038 0L.215 14.747z"/></symbol><symbol viewBox="0 0 320.001 320.001" id="play" xmlns="http://www.w3.org/2000/svg"><path d="M295.84 146.049l-256-144a16.026 16.026 0 00-15.904.128A15.986 15.986 0 0016 16.001v288a15.986 15.986 0 007.936 13.824A16.144 16.144 0 0032 320.001c2.688 0 5.408-.672 7.84-2.048l256-144c5.024-2.848 8.16-8.16 8.16-13.952s-3.136-11.104-8.16-13.952z"/></symbol></svg>